<svg xmlns="http://www.w3.org/2000/svg" viewBox="0 0 1200 760" role="img" aria-labelledby="title desc">
  <title id="title">Robot aspirador Xiaomi en servicio técnico XiaoTech Madrid</title>
  <desc id="desc">Ilustración técnica de un robot aspirador en una mesa de reparación con herramientas.</desc>
  <defs>
    <linearGradient id="bg" x1="0" x2="1" y1="0" y2="1"><stop stop-color="#111"/><stop offset="1" stop-color="#242424"/></linearGradient>
    <radialGradient id="halo"><stop stop-color="#ff6900" stop-opacity=".42"/><stop offset="1" stop-color="#ff6900" stop-opacity="0"/></radialGradient>
    <filter id="shadow"><feDropShadow dx="0" dy="18" stdDeviation="24" flood-color="#000" flood-opacity=".45"/></filter>
  </defs>
  <rect width="1200" height="760" rx="34" fill="url(#bg)"/>
  <circle cx="760" cy="385" r="360" fill="url(#halo)"/>
  <g opacity=".18" stroke="#fff"><path d="M0 610h1200M0 665h1200M0 720h1200"/><path d="M110 0v760M250 0v760M390 0v760M530 0v760M670 0v760M810 0v760M950 0v760M1090 0v760"/></g>
  <g transform="translate(735 400)" filter="url(#shadow)">
    <ellipse cx="0" cy="170" rx="340" ry="82" fill="#000" opacity=".36"/>
    <ellipse cx="0" cy="0" rx="335" ry="245" fill="#090909" stroke="#454545" stroke-width="11"/>
    <ellipse cx="0" cy="-28" rx="310" ry="210" fill="#181818" stroke="#2f2f2f" stroke-width="8"/>
    <circle cx="-45" cy="-70" r="67" fill="#232323" stroke="#555" stroke-width="8"/>
    <circle cx="-45" cy="-70" r="42" fill="#111"/>
    <path d="M-212 58q212 92 424 0" fill="none" stroke="#ff6900" stroke-width="12" stroke-linecap="round"/>
    <rect x="130" y="-124" width="58" height="22" rx="11" fill="#ff6900"/>
    <circle cx="-18" cy="64" r="9" fill="#ff6900"/>
  </g>
  <g transform="translate(135 125)">
    <rect width="335" height="500" rx="30" fill="#0b0b0b" stroke="#3a3a3a"/>
    <text x="35" y="72" fill="#ff6900" font-family="Arial, sans-serif" font-size="30" font-weight="700">SERVICIO TÉCNICO</text>
    <text x="35" y="122" fill="#fff" font-family="Arial, sans-serif" font-size="42" font-weight="700">Robot aspirador</text>
    <text x="35" y="171" fill="#fff" font-family="Arial, sans-serif" font-size="42" font-weight="700">Xiaomi</text>
    <g font-family="Arial, sans-serif" font-size="24" fill="#d9d9d9">
      <text x="35" y="238">Diagnóstico profesional</text><text x="35" y="282">Baterías y carga</text><text x="35" y="326">Sensores y navegación</text><text x="35" y="370">Motores y cepillos</text><text x="35" y="414">Software y conectividad</text>
    </g>
    <rect x="35" y="448" width="180" height="8" rx="4" fill="#ff6900"/>
  </g>
</svg>
